<svg xmlns="http://www.w3.org/2000/svg" width="35.03" height="64" viewBox="0 0 35.03 64" data-prefix="i95khofhn">
<path
    fill="rgb(255, 59, 105)"
    d="M18.58 54.993a1.234 1.234 0 0 1-1.06.61 1.251 1.251 0 0 1-1.07-.61C15.78 53.852.01 26.952.01 17.653a17.511 17.511 0 1 1 35.02 0c0 9.299-15.78 36.199-16.45 37.34zm-1.06-52.5A15.116 15.116 0 0 0 2.48 17.658c0 7.307 11.45 27.936 15.04 34.225 3.59-6.289 15.04-26.92 15.04-34.225a15.122 15.122 0 0 0-15.04-15.17zM8.59 17.657a8.925 8.925 0 1 1 8.93 9.008 8.972 8.972 0 0 1-8.93-9.013zm15.38 0a6.455 6.455 0 1 0-6.45 6.515 6.485 6.485 0 0 0 6.45-6.52zM8.71 61.514h17.61a1.246 1.246 0 0 1 0 2.492H8.71a1.249 1.249 0 0 1 0-2.497z"
    class="path-idqefupjc"></path>
</svg>
