<svg xmlns:xlink="http://www.w3.org/1999/xlink" data-name="6.svg" xmlns="http://www.w3.org/2000/svg" width="230" height="257.47" viewBox="0 0 230 257.47" data-prefix="iojre5a5l"><path d="M221 130.97a110.5 110.5 0 1 1-110.5-110.5A110.5 110.5 0 0 1 221 130.97z" opacity=".5" fill-rule="evenodd" class="path-iyh4oijbh" fill-opacity="0.3" fill="#FFFFFF"></path><path data-name="Shape 12 copy" d="M86.23 247.46l-67.24-67.2 23.78-23.79 67.24 67.2z" fill-rule="evenodd" class="path-iavdep4tn" fill="#FF3B69"></path><path data-name="Shape 12 copy 2" d="M84.65 53.52A37.429 37.429 0 0 0 33.01 7.81l22.03 22.01-17.68 17.66-22.02-22.01a37.423 37.423 0 0 0 45.74 51.6l136.31 136.02a16.67 16.67 0 0 0 23.56 0 16.64 16.64 0 0 0 0-23.55z" fill-rule="evenodd" class="path-ir7ghzvp2" fill="#FF3B69"></path><path d="M223.9 216.03a20.823 20.823 0 0 1-29.45 0l-71.7-71.54A43.791 43.791 0 0 1 110.71 168l-5.89-5.89c6.45-6.45 10.08-15.33 10.35-25.19L74.04 95.88a76.98 76.98 0 0 0-1.43 14.28c0 26.31-1.93 33.53-5.05 36.65l-12.37 11.67 66.67 66.6-32.39 32.39L8.6 176.7 41 144.31l8.3 8.29 12.37-11.68c.94-1.22 2.61-6.92 2.61-30.76a90.207 90.207 0 0 1 2.78-21.24l-7.16-7.15a41.584 41.584 0 0 1-48.32-58.1l2.54-5.31 23.24 23.23 11.79-11.77L25.9 6.59l5.32-2.54a41.581 41.581 0 0 1 58.13 48.28l14.96 14.92a22.938 22.938 0 0 1 11.44 1.96l7.03-7.02a12.512 12.512 0 0 1 17.67 0l8.84 8.83a12.418 12.418 0 0 1 2.64 3.93 12.857 12.857 0 0 1 15.03 1.96l8.83 8.83a12.393 12.393 0 0 1 3.62 8.03 12.82 12.82 0 0 1 8.17 3.74l8.83 8.83a12.38 12.38 0 0 1 2.04 15.21 11.509 11.509 0 0 1 3.08 2.18l7.57 7.57a11.3 11.3 0 0 1 3.33 8.02 11.047 11.047 0 0 1-3.27 7.89l-12.35 12.35 27.09 27.04a20.8 20.8 0 0 1 0 29.43zM41 156.08L20.38 176.7l69.09 69 20.62-20.62zM79.88 54.64l.82-2.44A33.248 33.248 0 0 0 40.55 9.45l20.38 20.37-23.57 23.54L16.99 33a33.241 33.241 0 0 0 42.77 40.12l2.44-.82 7.9 7.89a15.991 15.991 0 0 1 4.44-6.05c3.77-2.77 10.67-4.18 19.39-5.48zm31.14 31.08l-.02.02-5.89-5.89.01-.02-3.82-3.81q-1.05.15-2.16.3c-6.64.93-16.68 2.34-19.66 4.53-.9.66-1.97 2.74-3.01 5.69l36.85 36.77a33.179 33.179 0 0 0-7.91-13.72l5.89-5.89 18.69 18.68a17.641 17.641 0 0 0 12.7 5.42 11.362 11.362 0 0 1 3.2-6.29l.45-.45.05-.05-14.74-14.7-.04.03-5.89-5.88.04-.04zm32.38-8.81l-8.84-8.83a4.158 4.158 0 0 0-5.89 0L122.75 74c.49.44.96.89 1.41 1.34l13.35 13.34 5.89-5.89a4.165 4.165 0 0 0 0-5.88zm26.5 14.71l-8.83-8.83a4.272 4.272 0 0 0-5.89 0l-5.89 5.89-5.89 5.89 14.72 14.72 11.79-11.79a4.165 4.165 0 0 0-.01-5.88zm-16.37 42.51l7.54 7.53a4.477 4.477 0 0 0 2.97 1.36 3.071 3.071 0 0 0 2.46-.91l.52-.51-9.39-9.37a31.266 31.266 0 0 1-4.1 1.9zm36.99-21.9l-8.83-8.83a4.523 4.523 0 0 0-3.14-1.37 3.243 3.243 0 0 0-2.3.91l-.42.42c-.01.01-.02.03-.03.04l-11.79 11.77 4.41 4.41-.96 2.52a16.064 16.064 0 0 1-3.2 4.99l8.65 8.62 18.06-18.05c1.38-1.37 1.17-3.81-.45-5.43zm-21.39 43.88l7.57 7.57a2.934 2.934 0 0 0 4.14.06l4.18-4.17-11.79-11.77-4.17 4.17a2.935 2.935 0 0 0 .07 4.14zm34.14-14.79a2.814 2.814 0 0 0 .83-2 3.005 3.005 0 0 0-.89-2.13l-7.58-7.57a3.183 3.183 0 0 0-2.13-.89 2.828 2.828 0 0 0-2.01.82l-12.37 12.36 11.79 11.77zm14.74 51.17l-27.09-27.04-4.19 4.18a11.135 11.135 0 0 1-7.9 3.26 11.321 11.321 0 0 1-8.02-3.32l-7.57-7.57a11.312 11.312 0 0 1-2.85-11.26 13.018 13.018 0 0 1-5.22-3.19l-8.83-8.83a13.176 13.176 0 0 1-2.03-2.64 26.036 26.036 0 0 1-20.21-7.82l-1.36-1.35a50.4 50.4 0 0 1 .72 6.52l76.87 76.71a12.808 12.808 0 0 0 17.68.01 12.481 12.481 0 0 0 0-17.66zm-19.4 4.16l5.89-5.89 8.33 8.33-5.89 5.88z" fill-rule="evenodd" class="path-i6c47dci0" fill="#FFFFFF"></path></svg>
