<svg xmlns="http://www.w3.org/2000/svg" width="37" height="19" viewBox="0 0 37 19" data-prefix="ifb4ptxha">
    <path
        fill="rgb(255, 59, 105)"
        d="M36.98 2.221l-2.03 14.563a2.684 2.684 0 0 1-2.59 2.218H10.38a.784.784 0 1 1 0-1.568h21.98a1.1 1.1 0 0 0 1.01-.866l1.99-14.224-11.91 8.476h-.01a.774.774 0 0 1-.2.1.22.22 0 0 1-.05.017.8.8 0 0 1-.21.032.851.851 0 0 1-.25-.043.521.521 0 0 1-.05-.02.69.69 0 0 1-.22-.129h-.01L12.07 1.8a.777.777 0 0 1-.08-1.106 2.214 2.214 0 0 1 .33-.323 2.071 2.071 0 0 1 1.44-.365h21.26a1.912 1.912 0 0 1 1.96 2.215zM14.22 1.57l8.81 7.618 10.7-7.618H14.22zm-2.84 5.328H4.99a.784.784 0 1 1 0-1.568h6.39a.785.785 0 1 1 0 1.57zm4.31 3.04a.785.785 0 0 1-.79.784H.79a.784.784 0 1 1 0-1.568H14.9a.785.785 0 0 1 .79.784zm-9.29 3.04h10.9a.784.784 0 1 1 0 1.568H6.4a.784.784 0 1 1 0-1.568z"
        fill-rule="evenodd" class="path-i73yznl05"></path>
</svg>
