<svg xmlns="http://www.w3.org/2000/svg" width="36" height="63" viewBox="0 0 36 63" data-prefix="i0ctcebhx">
<path
    fill="rgb(255, 59, 105)"
    d="M31.03 63H4.95a5 5 0 0 1-4.97-5V5.01a5 5 0 0 1 4.97-5h26.08a5 5 0 0 1 4.97 5V58a5 5 0 0 1-4.97 5zm2.49-57.994a2.5 2.5 0 0 0-2.49-2.5H4.95a2.493 2.493 0 0 0-2.48 2.5V47.13h31.05V5.005zm0 44.626H2.47V58a2.492 2.492 0 0 0 2.48 2.5h26.08a2.5 2.5 0 0 0 2.49-2.5v-8.364zm-13.33 6.432h-4.4a1.251 1.251 0 0 1 0-2.5h4.4a1.251 1.251 0 0 1 0 2.499z"
    fill-rule="evenodd" class="path-icpzdcmz2"></path>
</svg>
