<svg xmlns:xlink="http://www.w3.org/1999/xlink" data-name="4.svg" xmlns="http://www.w3.org/2000/svg" width="271" height="215" viewBox="0 0 271 215" data-prefix="iz5gmykib"><path d="M158 79A79.005 79.005 0 1 1 78.99-.01 79.009 79.009 0 0 1 158 79z" fill-rule="evenodd" class="path-iwt8mv8kz" fill-opacity="0.3" fill="#FFFFFF"></path><path data-name="Shape 8 copy" d="M198.65 152.61a57.684 57.684 0 0 0-7.88-18.88l12.8-12.76-17.71-17.64-12.8 12.75a58.211 58.211 0 0 0-18.95-7.85V90.22h-25.05v18.01a58.483 58.483 0 0 0-18.96 7.85l-12.79-12.75-17.72 17.64 12.8 12.76a57.971 57.971 0 0 0-7.87 18.88H66.44v12.48h58.45a16.7 16.7 0 0 1 33.39 0h58.45v-12.48h-18.08z" fill-rule="evenodd" class="path-iqz30zxrm" fill="#FF3B69"></path><path d="M240.36 215H38.63C22.31 215 8 199.43 8 181.69v-8.28h20.87V55.58C28.87 41.69 38.15 32 51.43 32h178.45c13.69 0 24.42 10.35 24.42 23.58v117.83h16.69v8.28c0 17.74-14.31 33.31-30.63 33.31zm5.59-159.42c0-8.56-7.06-15.27-16.07-15.27H51.43c-8.63 0-14.21 6-14.21 15.27v117.83h208.73V55.58zm8.35 126.15H16.35c.02 11.78 9.54 24.95 22.28 24.95h201.73c12.74 0 22.26-13.17 22.29-24.95h-8.35zm-129.41 8.31h45.92v8.32h-45.92v-8.32zm112.71-24.95h-8.35V56.95H53.92v108.14h-8.35V48.63H237.6v116.46zM87.13 134.36l-13.44-13.39 23.62-23.52 13.44 13.39a61.912 61.912 0 0 1 14.14-5.86V86.06h33.39v18.92a62.1 62.1 0 0 1 14.14 5.86l13.44-13.39 23.62 23.52-13.44 13.39a61.76 61.76 0 0 1 5.87 14.09h18.99v16.64h-8.35v-8.32h-17.26l-.72-3.27a53.4 53.4 0 0 0-7.31-17.53l-1.82-2.82 12.23-12.18-11.81-11.76-12.22 12.18-2.83-1.81a54.032 54.032 0 0 0-17.6-7.28l-3.28-.72v-17.2h-16.7v17.2l-3.28.72a54.07 54.07 0 0 0-17.59 7.28l-2.83 1.81-12.22-12.18-11.81 11.76 12.22 12.18-1.81 2.82a53.4 53.4 0 0 0-7.31 17.53l-.72 3.27H70.62v8.32h-8.35v-16.64h18.98a61.792 61.792 0 0 1 5.88-14.09zm54.45-10.86a41.713 41.713 0 0 1 41.75 41.59h-8.35a33.4 33.4 0 0 0-66.79 0h-8.35a41.7 41.7 0 0 1 41.74-41.59zm0 20.79a20.865 20.865 0 0 1 20.88 20.8h-8.35a12.525 12.525 0 0 0-25.05 0h-8.35a20.863 20.863 0 0 1 20.87-20.8z" fill-rule="evenodd" class="path-iy283c3t7" fill="#FFFFFF"></path></svg>
