<svg xmlns="http://www.w3.org/2000/svg" width="38" height="41.969" viewBox="0 0 38 41.969" data-prefix="iax96alve">
    <path
        fill="#fff"
        d="M17.2 40.171v-34.8L2.855 15.881a1.789 1.789 0 0 1-2.511-.4 1.818 1.818 0 0 1 .4-2.529l17.2-12.6a1.74 1.74 0 0 1 .224-.113 1.552 1.552 0 0 1 .207-.106 1.761 1.761 0 0 1 .588-.119c.014 0 .025-.008.038-.008s.025.007.039.008a1.766 1.766 0 0 1 .588.119 1.615 1.615 0 0 1 .207.106 1.728 1.728 0 0 1 .223.113l17.2 12.6a1.818 1.818 0 0 1 .4 2.529 1.789 1.789 0 0 1-2.511.4L20.8 5.368v34.8a1.8 1.8 0 1 1-3.6.003z"
        fill-rule="evenodd" class="path-iaulztzvu"></path>
</svg>
