<svg xmlns:xlink="http://www.w3.org/1999/xlink" data-name="5.svg" xmlns="http://www.w3.org/2000/svg" width="238" height="233" viewBox="0 0 238 233" data-prefix="ipvjf3sp5"><path d="M184 112a75 75 0 1 1-75-75 75 75 0 0 1 75 75z" fill-rule="evenodd" class="path-ic64vlkpn" fill-opacity="0.3" fill="#FFFFFF"></path><path data-name="Shape 10 copy" d="M192.06 60.33a14.615 14.615 0 1 0 14.62-14.56 14.594 14.594 0 0 0-14.62 14.56zm0 104.08a14.615 14.615 0 1 1 14.62 14.5 14.562 14.562 0 0 1-14.62-14.5zm12.53-54.15a14.615 14.615 0 1 0 14.61-14.57 14.585 14.585 0 0 0-14.61 14.57zm-45.93 104.02a14.615 14.615 0 1 1 14.61 14.56 14.587 14.587 0 0 1-14.61-14.56zm8.35-195.56a14.615 14.615 0 1 0 14.61-14.56 14.585 14.585 0 0 0-14.61 14.56z" fill-rule="evenodd" class="path-i23ab81ri" fill="#FF3B69"></path><path d="M219.2 128.98a18.8 18.8 0 0 1-17.69-12.48h-47.03v-8.32h46.06a18.78 18.78 0 1 1 18.66 20.8zm0-29.12a10.421 10.421 0 0 0-10.22 8.32h.14l2 8.32h-.25a10.417 10.417 0 1 0 8.33-16.64zm-102.29 8.32h8.35v8.32h-8.35v-8.32zm89.77-29.13a18.78 18.78 0 0 1-18.67-16.64H176.7l-19.55 29.12h-48.88c-11.46 0-21.15 9.53-21.15 20.81s9.69 20.8 21.15 20.8h8.64v8.32h-8.64c-15.99 0-29.5-13.34-29.5-29.12s13.51-29.13 29.5-29.13h44.42l19.55-29.12h16.74a18.77 18.77 0 1 1 17.7 24.96zm0-29.12a10.412 10.412 0 0 0-8.33 4.16h.41l-2 8.32h-.31a10.436 10.436 0 1 0 10.23-12.48zm-25.06-12.49a18.732 18.732 0 0 1-12.01-4.34l-21.97 25.15h-9.86v-8.32h6.06l20.63-23.61a18.567 18.567 0 0 1-1.63-7.6 18.785 18.785 0 1 1 18.78 18.72zm0-29.12a10.429 10.429 0 0 0-10.43 10.3l.76.55 3.3 7.47-.15.18a10.41 10.41 0 1 0 6.52-18.5zm-64.71 41.61h8.35v8.32h-8.35v-8.32zm0-33.29H91.88L91.75 34l-3.19.76a76.177 76.177 0 0 0-23.83 9.56l-2.54 1.62-14.18-11.49-18.77 19.04 11.91 13.43-1.61 2.63a83.549 83.549 0 0 0-10.02 22.99l-.79 3.15H8.35v29.13h20.04l.73 3.24c2.22 9.8 6.31 20.47 10.42 27.19l1.51 2.45-11.97 15.31 18.77 19.14 14.17-13.01 2.71 1.73a77.27 77.27 0 0 0 23.83 10l3.19.75.13 20.58h25.03v-20.81h8.35v29.13H83.59l-.15-22.37a85.653 85.653 0 0 1-20.45-8.59l-15.44 14.19L18 173.63l12.96-16.56a109.834 109.834 0 0 1-9.19-23.93H0V87.37h22.29a92.254 92.254 0 0 1 8.55-19.51l-13-14.67 29.55-29.98 15.44 12.53a84.185 84.185 0 0 1 20.62-8.28l.14-19.14h41.67v20.8h-8.35V16.64zm20.87 124.82h-12.52v-8.32h12.52v8.32zm8.35-24.96h-8.35v-8.32h8.35v8.32zm-37.57 54.09c-34.54 0-62.63-26.13-62.63-58.25 0-33.25 29.26-62.41 62.63-62.41v8.32c-28.92 0-54.28 25.27-54.28 54.09 0 27.53 24.35 49.93 54.28 49.93h31.41l24.73 35.37a18.587 18.587 0 0 1 8.57-2.09 18.725 18.725 0 1 1-18.79 18.73 18.543 18.543 0 0 1 3.81-11.25l-22.69-32.44h-27.04zm64.71 54.09a10.405 10.405 0 1 0 0-20.81 16.751 16.751 0 0 0-4.73.7l1.95.37-5.85 4.76-1.1.84a10.316 10.316 0 0 0-.7 3.74 10.43 10.43 0 0 0 10.43 10.4zm-.87-58.25l-18.96-24.97h-7.31v-8.32h11.46l18.96 24.97h12.46a18.615 18.615 0 1 1-1.01 8.32h-15.6zm34.28 8.32a10.34 10.34 0 1 0-8.26-16.64h.34l-2 8.32h-.32a10.429 10.429 0 0 0 10.24 8.32z" fill-rule="evenodd" class="path-i14bkm3el" fill="#FFFFFF"></path></svg>
