<svg xmlns:xlink="http://www.w3.org/1999/xlink" data-name="3.svg" xmlns="http://www.w3.org/2000/svg" width="230" height="266" viewBox="0 0 230 266" data-prefix="i7mw9n3ut"><path d="M224 115.5A108.5 108.5 0 1 1 115.5 7 108.5 108.5 0 0 1 224 115.5z" fill-rule="evenodd" class="path-isdvf37q6" fill-opacity="0.3" fill="#FFFFFF"></path><path data-name="Shape 5 copy" d="M166.1 124.17v-20.86h-13.92a28.422 28.422 0 0 0-3.8-9.33l9.84-9.91-14.72-14.78-9.83 9.84a39.431 39.431 0 0 0-9.2-3.82V61.6h-20.81v13.71a39.33 39.33 0 0 0-9.19 3.81l-9.84-9.86-14.72 14.75 9.84 9.97a28.639 28.639 0 0 0-3.8 9.33H62.03v20.86h13.92a27.267 27.267 0 0 0 3.8 9.1l-9.84 9.79 14.72 14.72 9.84-9.87a38.853 38.853 0 0 0 9.19 3.79v14.18h20.81V151.7a38.953 38.953 0 0 0 9.2-3.8l9.83 9.85L158.22 143l-9.84-9.73a27.063 27.063 0 0 0 3.8-9.1h13.92z" fill-rule="evenodd" class="path-ie98xjtb7" fill="#FF3B69"></path><path d="M145.29 207.6h-8.33c0-18.8 11.61-29.99 23.91-41.84l.56-.54a70.691 70.691 0 0 0 21.32-50.72 69.9 69.9 0 0 0-21.09-50.56 69.934 69.934 0 0 0-95.18 0 69.866 69.866 0 0 0-21.1 50.56 70.691 70.691 0 0 0 21.32 50.72l.56.54c12.3 11.85 23.91 23.04 23.91 41.84h-8.32c0-15.25-9.43-24.33-21.36-35.82l-.56-.55a79.438 79.438 0 0 1-.26-113.28 78.272 78.272 0 0 1 106.79 0 79.426 79.426 0 0 1-.25 113.28l-.57.55c-11.93 11.49-21.35 20.57-21.35 35.82zm-16.65-37.54H99.5v-15.29a44 44 0 0 1-4.25-1.74l-10.62 10.65-20.61-20.62 10.55-10.52a27.71 27.71 0 0 1-1.81-4.2H57.87v-29.2h14.88a28.7 28.7 0 0 1 1.85-4.44L64.04 83.99l20.59-20.63 10.62 10.65a42.683 42.683 0 0 1 4.25-1.76V57.43h29.14v14.82a42.356 42.356 0 0 1 4.25 1.77l10.62-10.62 20.58 20.66-10.56 10.65a28.01 28.01 0 0 1 1.85 4.43h14.88v29.2h-14.89a27.589 27.589 0 0 1-1.8 4.19l10.55 10.46-20.62 20.66-10.62-10.64a41.549 41.549 0 0 1-4.24 1.76v15.29zm-20.82-8.35h12.49v-13.19l3.07-.84a34.922 34.922 0 0 0 8.21-3.4l2.77-1.59 9.14 9.16 8.82-8.83-9.14-9.04 1.89-3.31a22 22 0 0 0 3.04-7.37l.7-3.3h13.13v-12.52h-13.13l-.7-3.3a24.74 24.74 0 0 0-3.34-8.13l-1.57-2.75 9.14-9.22-8.84-8.89-9.14 9.15-2.77-1.59a34.911 34.911 0 0 0-8.21-3.41l-3.07-.84V65.77h-12.49V78.5l-3.07.84a34.85 34.85 0 0 0-8.21 3.4l-2.76 1.58-9.15-9.16-8.85 8.87 9.15 9.28-1.57 2.75a24.534 24.534 0 0 0-3.34 8.12l-.7 3.3H66.19V120h13.13l.7 3.3a21.979 21.979 0 0 0 3.06 7.4l1.87 3.27-9.14 9.1 8.82 8.81 9.14-9.17 2.77 1.58a34.866 34.866 0 0 0 8.21 3.39l3.07.84v13.19zm6.25-29.2a18.77 18.77 0 1 1 18.73-18.77 18.778 18.778 0 0 1-18.73 18.77zm0-29.2a10.43 10.43 0 1 0 10.4 10.43 10.433 10.433 0 0 0-10.4-10.43zM122.03 266H106.1l-8.33-8.35h-6.6v-8.34h10.05l8.33 8.34h9.04l8.32-8.34h10.05v8.34h-6.6zm23.26-41.72H82.85v-8.34h62.44v8.34zm0 16.69H82.85v-8.34h62.44v8.34zM2.15 149.86L0 141.8l26.45-7.1 2.15 8.06zm32.39 51.9l-5.88-5.9 19.36-19.4 5.89 5.9zm53-173.1l-7.09-26.5L88.49 0l7.09 26.5zM48.02 54.02l-19.36-19.4 5.88-5.9 19.37 19.4zM26.45 95.78L0 88.68l2.15-8.06 26.45 7.1zm177.1 0l-2.15-8.06 26.45-7.1 2.15 8.06zm24.3 54.08l-26.45-7.1 2.15-8.06 26.45 7.1zm-32.4 51.9l-19.36-19.4 5.89-5.9 19.36 19.4zm-52.99-173.1l-8.04-2.16L141.51 0l8.04 2.16zm39.52 25.36l-5.89-5.9 19.36-19.4 5.89 5.9z" fill-rule="evenodd" class="path-ii8g76q3j" fill="#FFFFFF"></path></svg>
