<svg xmlns:xlink="http://www.w3.org/1999/xlink" data-name="1.svg" xmlns="http://www.w3.org/2000/svg" width="250" height="238" viewBox="0 0 250 238" data-prefix="iflk8bfel"><path data-name="Shape 1 copy 2" d="M220.833 162.84c0-2.96 5.3-4.18 8.334-4.18a16.685 16.685 0 0 1 16.666 16.7V50.1a16.685 16.685 0 0 0-16.667-16.7c-3.036 0-8.333.72-8.333 4.17v125.27zm-191.666 0c0-2.96-5.3-4.18-8.334-4.18a16.685 16.685 0 0 0-16.666 16.7V50.1a16.685 16.685 0 0 1 16.667-16.7c3.036 0 8.333.72 8.333 4.17v125.27z" fill-rule="evenodd" class="path-i7qoteh3l" fill-opacity="0.3" fill="#FFFFFF"></path><path d="M125.5 1A114.712 114.712 0 0 0 28 55.13h195A114.713 114.713 0 0 0 125.5 1zm0 229a114.571 114.571 0 0 0 84.9-37.47H40.594A114.571 114.571 0 0 0 125.5 230z" fill-rule="evenodd" class="path-ivvsopotz" fill-opacity="0.3" fill="#FFFFFF"></path><path data-name="Shape 1 copy 5" d="M44.99 147.59V152h147V7.02h-4.6zM108 121.05V123h65V59.01h-2.04z" fill-rule="evenodd" class="path-iqgjs91ng" fill="#FF3B69"></path><path data-name="Shape 1 copy 4" d="M208.333 237.99H50v-29.23h158.333V237.99z" fill-rule="evenodd" class="path-ioklomw9a" fill="#FF3B69"></path><path d="M229.167 196.24H20.833A20.883 20.883 0 0 1 0 175.36V50.1a20.883 20.883 0 0 1 20.833-20.88c7.711 0 12.5 3.2 12.5 8.35V50.1H137.5v.55L189.441 0H200v50.1h16.667V37.57c0-5.15 4.789-8.35 12.5-8.35A20.883 20.883 0 0 1 250 50.1v125.26a20.883 20.883 0 0 1-20.833 20.88zM25 38.22a11.442 11.442 0 0 0-4.167-.65 12.528 12.528 0 0 0-12.5 12.53v108.57a20.676 20.676 0 0 1 12.5-4.19 19.526 19.526 0 0 1 4.167.47V38.22zM191.667 9.48L51.534 146.13h31.8v-8.35h8.334v8.35h12.5v-8.35h8.332v8.35H125v-8.35h8.333v8.35h12.5v-8.35h8.334v8.35h12.5v-8.35H175v8.35h16.667V9.48zm50 40.62a12.528 12.528 0 0 0-12.5-12.53 11.442 11.442 0 0 0-4.167.65v116.73a19.526 19.526 0 0 1 4.167-.47 20.676 20.676 0 0 1 12.5 4.19V50.1zm-12.5 112.74a10.542 10.542 0 0 0-4.264.9 4.167 4.167 0 0 1-8.236-.9V58.45H200v96.03H41.667v-10.37L129.5 58.45H33.333v104.39a4.167 4.167 0 0 1-8.236.9 10.542 10.542 0 0 0-4.264-.9 12.525 12.525 0 0 0 0 25.05h208.334a12.525 12.525 0 0 0 0-25.05zm-120.834-47.66l56.608-56.73H175v66.81h-66.667v-10.08zm58.334 1.73V68.53l-48.275 48.38h48.275zm-125 91.85H213.7l23.332 14.65-23.336 14.58H41.667a12.526 12.526 0 0 1-12.5-12.52v-4.18a12.528 12.528 0 0 1 12.5-12.53zm166.666 20.88h2.975l10-6.25-10-6.27h-2.971v12.52zm-150 0H200v-12.52H58.333v12.52zM37.5 225.47a4.172 4.172 0 0 0 4.167 4.17H50v-12.52h-8.333a4.172 4.172 0 0 0-4.167 4.17v4.18z" fill-rule="evenodd" class="path-irm504n6h" fill="#FFFFFF"></path></svg>
